<?xml version="1.0" standalone="no"?>
<!DOCTYPE svg PUBLIC "-//W3C//DTD SVG 20010904//EN"
 "http://www.w3.org/TR/2001/REC-SVG-20010904/DTD/svg10.dtd">
<svg version="1.0" xmlns="http://www.w3.org/2000/svg"
 width="1080.000000pt" height="1080.000000pt" viewBox="0 0 1080.000000 1080.000000"
 preserveAspectRatio="xMidYMid meet">
<metadata>
Created by potrace 1.14, written by Peter Selinger 2001-2017
</metadata>
<g transform="translate(0.000000,1080.000000) scale(0.100000,-0.100000)"
fill="#000000" stroke="none">
<path d="M5297 9194 c-1 -1 -63 -4 -137 -7 -74 -4 -145 -8 -157 -11 -12 -3
-50 -7 -85 -11 -407 -39 -978 -225 -1358 -442 -291 -166 -513 -327 -729 -528
-93 -86 -217 -212 -265 -269 -22 -27 -48 -56 -57 -65 -49 -49 -196 -246 -284
-381 -100 -153 -157 -252 -230 -400 -20 -41 -40 -83 -45 -92 -37 -68 -141
-345 -199 -533 -19 -61 -55 -207 -71 -290 -6 -27 -12 -61 -15 -75 -11 -54 -44
-299 -51 -370 -3 -41 -8 -159 -9 -262 l-2 -188 31 0 c52 -1 420 -1 431 -1 7 1
10 63 10 174 0 171 7 286 25 402 5 33 11 77 14 98 50 336 206 774 388 1092
256 446 615 834 1033 1116 44 30 88 59 97 64 10 6 57 33 105 61 375 219 830
374 1228 419 28 3 61 8 75 10 127 23 615 22 732 0 11 -3 46 -7 77 -10 81 -9
344 -62 426 -86 343 -102 574 -201 837 -360 81 -49 262 -172 318 -216 631
-494 1064 -1185 1225 -1953 27 -127 54 -329 62 -455 13 -212 8 -513 -11 -625
-3 -14 -7 -47 -11 -75 -11 -93 -65 -337 -101 -459 -48 -164 -106 -318 -115
-309 -8 8 -332 655 -809 1618 -350 706 -751 1509 -756 1514 -3 3 -384 -765
-384 -774 0 -1 -82 -168 -181 -371 -100 -203 -205 -418 -234 -479 -29 -60
-114 -236 -190 -390 -256 -521 -352 -721 -359 -742 l-7 -22 304 1 303 0 26 48
c15 27 81 156 149 287 67 131 143 279 169 328 26 50 100 194 165 320 148 290
226 438 234 447 3 4 89 -156 189 -355 101 -199 264 -519 362 -712 97 -192 289
-570 425 -840 345 -682 496 -979 500 -983 4 -4 79 95 157 208 132 193 276 457
354 647 19 48 41 102 49 118 26 58 104 301 134 417 48 186 94 450 109 630 9
105 8 571 -1 658 -44 421 -110 700 -254 1070 -240 617 -672 1191 -1203 1599
-58 44 -109 84 -115 89 -5 4 -62 42 -125 84 -379 248 -753 410 -1195 517 -227
55 -377 78 -625 97 -78 6 -368 12 -373 8z"/>
<path d="M4197 7034 c-1 -1 -31 -4 -67 -7 -185 -14 -361 -99 -505 -244 -57
-58 -139 -171 -164 -228 -135 -305 -88 -662 118 -898 48 -55 151 -146 196
-174 88 -55 214 -104 305 -119 19 -3 161 -7 315 -9 174 -3 296 -9 323 -16 56
-16 135 -86 157 -141 52 -130 6 -266 -113 -336 l-47 -27 -1536 -5 -1535 -5 32
-167 c18 -92 37 -182 43 -200 6 -18 25 -82 41 -143 17 -60 35 -119 40 -130 5
-11 19 -49 31 -85 48 -144 205 -481 273 -589 14 -22 26 -43 26 -47 0 -17 208
-316 296 -426 129 -160 151 -185 304 -338 403 -402 853 -686 1395 -880 72 -26
297 -96 335 -105 98 -23 379 -76 424 -81 33 -3 69 -8 80 -10 91 -19 609 -27
771 -12 113 11 243 28 290 38 22 5 56 12 75 15 68 11 276 57 315 70 22 7 87
27 145 45 222 69 532 205 745 329 181 104 454 299 580 412 17 15 41 37 55 49
14 12 60 55 103 97 71 71 76 78 64 97 -7 12 -58 95 -112 186 -53 91 -104 176
-112 189 -15 23 -15 23 -131 -92 -149 -147 -207 -197 -367 -316 -172 -129
-316 -218 -505 -312 -141 -70 -187 -90 -345 -149 -56 -21 -237 -80 -263 -85
-9 -2 -46 -11 -82 -20 -36 -9 -74 -19 -85 -21 -11 -2 -31 -6 -45 -9 -75 -16
-200 -34 -340 -50 -111 -12 -517 -13 -620 -1 -381 45 -580 92 -925 221 -130
48 -346 158 -533 270 -107 64 -309 213 -412 304 -128 111 -304 293 -400 411
-25 30 -48 57 -51 60 -13 11 -170 240 -217 315 -79 128 -168 303 -227 445 -30
73 -55 134 -55 136 0 2 566 5 1258 6 l1257 3 75 23 c310 95 555 378 597 687
28 211 -14 412 -124 583 -111 175 -347 337 -533 367 -25 4 -54 9 -65 11 -11 3
-141 5 -290 5 -233 1 -277 4 -318 20 -66 24 -112 61 -144 117 -24 41 -28 58
-28 127 0 69 4 86 26 125 32 53 69 88 124 115 37 18 64 19 344 21 l304 1 100
79 c55 44 109 87 121 97 26 23 213 175 369 302 66 52 115 96 110 96 -12 2
-1264 4 -1266 3z"/>
<path d="M4945 3961 c-73 -19 -141 -75 -178 -145 -29 -56 -30 -174 -2 -231 28
-57 96 -122 144 -136 44 -13 48 -28 6 -23 -38 4 -55 -30 -53 -99 1 -31 6 -57
11 -57 4 0 5 5 2 10 -3 6 -2 10 4 10 18 0 22 -19 5 -28 -14 -8 -17 -24 -15
-93 3 -132 8 -178 19 -192 8 -9 53 -12 164 -12 126 1 155 -2 166 -15 11 -13
11 -13 6 2 -5 15 10 16 168 14 159 -2 230 3 245 18 3 3 8 74 10 158 3 84 1
150 -3 146 -7 -7 -11 -74 -13 -214 -1 -66 -4 -83 -17 -88 -24 -9 -706 -8 -714
1 -12 13 -21 75 -11 68 5 -3 13 -1 16 5 4 6 1 9 -6 8 -20 -5 -23 171 -3 193
11 12 12 19 4 24 -8 5 -7 11 2 23 10 14 10 15 -2 5 -23 -21 -27 -15 -25 30 2
58 9 67 59 67 23 0 48 6 55 13 11 10 13 10 7 0 -9 -16 -1 -16 26 -2 11 6 18 7
15 2 -3 -4 48 -8 114 -8 65 0 119 4 119 8 0 5 -35 8 -77 7 -43 -1 -91 -1 -108
0 -30 1 -30 1 8 14 85 31 147 94 171 177 l13 42 11 -45 c24 -94 116 -174 217
-191 17 -3 38 -8 48 -12 9 -4 17 -3 17 2 0 5 12 10 26 11 40 3 122 52 154 91
90 115 82 267 -21 370 -99 98 -278 93 -376 -10 -18 -19 -43 -59 -57 -89 -17
-38 -25 -48 -25 -32 -1 27 -24 74 -57 118 -52 67 -181 108 -269 85z m59 -95
c-1 -60 -5 -73 -24 -88 -23 -18 -58 -16 -71 4 -3 5 -10 10 -15 11 -5 1 -8 5
-7 8 1 4 -5 6 -15 5 -9 0 -16 4 -15 11 2 7 -3 10 -11 7 -22 -8 -29 15 -12 40
19 30 113 78 146 74 24 -3 25 -5 24 -72z m135 40 c51 -33 86 -80 68 -94 -24
-20 -120 -53 -138 -47 -30 10 -48 33 -44 58 2 12 6 44 10 71 6 47 7 48 35 42
16 -3 47 -17 69 -30z m397 -36 c2 -79 -14 -110 -56 -110 -16 0 -32 5 -36 12
-5 7 -2 9 7 4 8 -4 6 -1 -4 8 -11 8 -24 13 -30 10 -7 -2 -23 5 -37 15 -37 29
-16 64 62 102 87 40 93 38 94 -41z m133 34 c37 -24 81 -73 81 -90 0 -8 -4 -12
-10 -9 -5 3 -10 1 -10 -5 0 -7 -7 -9 -16 -6 -10 4 -13 2 -8 -6 5 -7 0 -9 -14
-6 -14 4 -20 2 -15 -5 4 -7 0 -8 -11 -4 -10 4 -15 3 -11 -3 10 -17 -62 -11
-79 6 -19 18 -20 45 -5 113 10 49 10 49 41 40 17 -4 42 -16 57 -25z m-838
-105 c11 -5 16 -15 13 -21 -4 -7 -2 -8 5 -4 7 5 27 -4 46 -19 25 -19 35 -34
35 -54 0 -32 -23 -57 -41 -45 -8 5 -9 3 -4 -6 6 -10 3 -12 -13 -8 -12 4 -20 2
-16 -3 3 -5 0 -10 -5 -10 -15 -2 -23 -4 -45 -14 -26 -11 -36 10 -36 76 0 60
16 119 32 119 5 0 18 -5 29 -11z m519 0 c0 -5 5 -7 10 -4 6 3 10 2 10 -3 0 -5
9 -12 21 -15 13 -4 18 -10 13 -18 -4 -8 -3 -10 4 -5 16 9 62 -38 62 -63 0 -22
-33 -48 -98 -76 -37 -16 -45 -17 -53 -4 -5 8 -8 24 -6 37 2 12 0 22 -5 22 -12
0 -2 81 14 115 11 25 28 34 28 14z m-106 -41 c15 -56 -4 -165 -30 -175 -7 -2
-38 14 -68 37 -49 37 -56 47 -56 76 0 33 11 44 52 53 4 1 20 8 35 16 40 21 60
18 67 -7z m531 -16 c0 -16 4 -28 8 -25 9 5 2 -71 -9 -103 -14 -40 -24 -44 -52
-26 -92 58 -117 93 -93 130 9 15 121 63 136 58 6 -1 10 -17 10 -34z m-745 -42
c0 -13 -7 -20 -20 -20 -13 0 -20 7 -20 20 0 13 7 20 20 20 13 0 20 -7 20 -20z
m538 -3 c4 -22 -27 -35 -38 -16 -10 15 7 42 24 36 6 -2 12 -11 14 -20z m-604
-68 c24 -11 25 -16 24 -80 -1 -38 -5 -74 -9 -80 -13 -21 -83 7 -135 54 -45 41
-46 44 -29 60 10 10 25 15 33 12 9 -3 13 -3 8 2 -4 4 10 15 31 25 47 21 47 20
77 7z m136 -10 c0 -5 5 -7 10 -4 6 3 13 -1 16 -9 3 -9 9 -14 13 -12 4 3 20 -5
35 -17 l28 -22 -20 -25 c-24 -30 -95 -67 -137 -72 l-30 -3 -3 63 c-4 79 14
112 58 112 17 0 30 -5 30 -11z m414 -4 c22 -17 25 -93 3 -107 -9 -6 -9 -8 0
-8 9 0 10 -7 4 -22 -15 -40 -77 -21 -148 46 -30 27 -47 66 -23 51 6 -3 10 -1
10 5 0 7 7 9 16 6 8 -3 12 -2 9 4 -6 9 8 14 28 11 4 0 7 3 7 8 0 22 68 26 94
6z m136 -5 c22 -11 40 -23 40 -26 0 -3 -5 -2 -12 2 -7 4 -8 3 -4 -5 4 -6 11
-9 16 -6 14 9 40 -6 40 -24 0 -35 -103 -100 -158 -101 -22 0 -23 3 -21 71 1
55 6 76 20 90 24 24 31 24 79 -1z"/>
<path d="M5130 3886 c0 -2 8 -10 18 -17 15 -13 16 -12 3 4 -13 16 -21 21 -21
13z"/>
<path d="M5221 3674 c0 -11 3 -14 6 -6 3 7 2 16 -1 19 -3 4 -6 -2 -5 -13z"/>
<path d="M5205 3950 c10 -11 20 -20 23 -20 3 0 -3 9 -13 20 -10 11 -20 20 -23
20 -3 0 3 -9 13 -20z"/>
<path d="M4760 3855 c-7 -9 -11 -17 -9 -20 3 -2 10 5 17 15 14 24 10 26 -8 5z"/>
<path d="M4775 3520 c10 -11 20 -20 23 -20 3 0 -3 9 -13 20 -10 11 -20 20 -23
20 -3 0 3 -9 13 -20z"/>
<path d="M5764 3498 l-29 -33 33 29 c17 17 32 31 32 33 0 8 -8 1 -36 -29z"/>
<path d="M5281 3417 c-14 -14 -14 -27 -1 -27 6 0 9 3 9 8 -4 21 3 23 23 6 12
-10 18 -13 14 -6 -4 6 -3 12 1 12 5 0 15 -6 22 -12 10 -9 12 -9 7 -1 -8 14 10
27 19 14 3 -6 12 -8 19 -5 8 3 17 1 21 -5 3 -6 10 -11 16 -11 5 0 -1 10 -13
22 -14 14 -23 18 -26 10 -2 -7 -9 -9 -15 -5 -19 12 -85 11 -96 0z"/>
<path d="M5477 3409 c7 -7 15 -10 18 -7 3 3 -2 9 -12 12 -14 6 -15 5 -6 -5z"/>
<path d="M5611 3417 c2 -1 12 -9 22 -16 15 -12 17 -12 11 3 -3 9 -13 16 -22
16 -8 0 -13 -1 -11 -3z"/>
<path d="M5230 3402 c0 -5 7 -9 15 -9 8 0 12 4 9 9 -3 4 -9 8 -15 8 -5 0 -9
-4 -9 -8z"/>
<path d="M5118 3393 c6 -2 18 -2 25 0 6 3 1 5 -13 5 -14 0 -19 -2 -12 -5z"/>
<path d="M5637 3360 c-3 -11 -1 -23 4 -26 5 -3 9 6 9 20 0 31 -6 34 -13 6z"/>
<path d="M5044 3357 c-3 -9 -13 -14 -22 -10 -15 4 -15 3 -2 -6 11 -7 19 -6 29
4 8 8 12 18 8 21 -4 4 -9 0 -13 -9z"/>
<path d="M5943 3342 c-40 -15 -73 -30 -73 -35 0 -4 9 -3 21 4 12 6 30 9 40 6
10 -3 17 -1 13 4 -3 5 3 9 13 10 10 0 36 9 58 19 60 28 12 22 -72 -8z"/>
<path d="M5717 3343 c18 -3 21 -10 19 -42 -1 -20 -6 -43 -11 -51 -5 -8 -4 -11
1 -7 6 3 10 -27 10 -74 0 -78 -1 -79 -26 -80 -25 -2 -25 -2 -1 -6 13 -3 28 0
33 5 5 5 9 54 10 108 0 162 2 154 -29 153 -23 -1 -24 -3 -6 -6z"/>
<path d="M6076 3300 c1 -24 -3 -40 -10 -40 -7 0 -6 -4 3 -9 10 -6 10 -10 1
-16 -9 -6 -9 -10 1 -17 11 -7 11 -11 1 -15 -6 -2 -9 -10 -5 -16 11 -17 9 -51
-2 -59 -7 -5 -7 -8 0 -8 6 0 10 -19 8 -42 l-2 -43 8 40 c11 52 14 265 4 265
-4 0 -7 -18 -7 -40z"/>
<path d="M4762 3276 c1 -50 2 -50 5 -8 4 39 6 42 34 42 41 0 36 15 -6 16 l-35
1 2 -51z"/>
<path d="M5387 3324 c-5 -4 -117 -14 -153 -14 -39 0 -42 -2 -46 -30 -3 -19 -1
-29 6 -27 6 2 10 12 8 23 -2 16 4 19 38 20 27 1 38 -2 33 -10 -5 -8 -3 -8 8 1
8 6 30 9 49 7 25 -3 31 -1 20 6 -11 7 1 10 43 11 81 2 95 3 101 9 4 5 -102 8
-107 4z"/>
<path d="M4680 3310 c8 -5 26 -9 40 -9 l25 1 -25 8 c-14 4 -32 8 -40 9 -13 1
-13 0 0 -9z"/>
<path d="M5021 3304 c0 -11 3 -14 6 -6 3 7 2 16 -1 19 -3 4 -6 -2 -5 -13z"/>
<path d="M5635 3310 c-3 -5 -1 -10 4 -10 6 0 11 5 11 10 0 6 -2 10 -4 10 -3 0
-8 -4 -11 -10z"/>
<path d="M5805 3300 c-4 -6 -1 -9 6 -8 8 2 11 -15 10 -59 -1 -35 2 -63 6 -63
7 0 10 95 4 133 -2 10 -19 9 -26 -3z"/>
<path d="M5905 3300 c-3 -6 1 -7 9 -4 18 7 21 14 7 14 -6 0 -13 -4 -16 -10z"/>
<path d="M4670 3258 c0 -24 2 -47 5 -50 8 -7 65 3 65 12 0 5 -13 5 -29 0 -29
-8 -30 -8 -29 31 0 22 -2 43 -6 46 -3 4 -6 -14 -6 -39z"/>
<path d="M5283 3236 c3 -7 0 -19 -6 -25 -8 -8 -8 -11 0 -11 11 0 23 22 23 41
0 5 -5 9 -11 9 -6 0 -9 -6 -6 -14z"/>
<path d="M5505 3225 c0 -20 2 -22 14 -11 7 8 10 19 7 25 -12 18 -21 12 -21
-14z"/>
<path d="M5569 3238 c0 -7 0 -34 1 -60 1 -42 -1 -48 -19 -48 -12 0 -21 5 -21
11 0 8 -6 7 -17 -2 -11 -10 -14 -10 -9 -1 4 7 1 12 -9 12 -9 0 -14 -4 -11 -8
3 -5 -1 -9 -9 -9 -8 0 -12 4 -9 8 2 4 -2 9 -8 12 -19 6 -49 -4 -42 -14 4 -7
-69 -15 -98 -10 -5 0 -8 -3 -8 -8 0 -5 19 -7 43 -5 23 1 85 3 137 3 l95 1 0
65 c0 36 -3 65 -7 65 -5 0 -8 -6 -9 -12z m-119 -98 c0 -5 -5 -10 -11 -10 -5 0
-7 5 -4 10 3 6 8 10 11 10 2 0 4 -4 4 -10z"/>
<path d="M5186 3225 c4 -8 7 -15 9 -15 2 0 5 7 9 15 3 9 0 15 -9 15 -9 0 -12
-6 -9 -15z"/>
<path d="M4795 3210 c-16 -7 -12 -9 18 -9 20 -1 37 3 37 7 0 11 -31 12 -55 2z"/>
<path d="M4895 3210 c-3 -5 -1 -10 4 -10 6 0 11 5 11 10 0 6 -2 10 -4 10 -3 0
-8 -4 -11 -10z"/>
<path d="M4897 3177 c-3 -8 -1 -20 4 -28 6 -10 9 -7 9 14 0 29 -5 35 -13 14z"/>
<path d="M6111 3154 c0 -11 3 -14 6 -6 3 7 2 16 -1 19 -3 4 -6 -2 -5 -13z"/>
<path d="M5823 3147 c-4 -8 -17 -17 -28 -20 -16 -4 -14 -5 6 -6 17 -1 29 5 33
15 8 22 0 30 -11 11z"/>
<path d="M5378 3143 c7 -3 16 -2 19 1 4 3 -2 6 -13 5 -11 0 -14 -3 -6 -6z"/>
<path d="M5949 3074 c45 -19 85 -33 88 -31 5 6 -141 67 -159 66 -7 0 25 -16
71 -35z"/>
<path d="M5141 2887 c0 -10 7 -20 17 -23 34 -11 47 -22 45 -39 -1 -12 2 -14
10 -6 7 7 7 14 -1 23 -8 10 4 12 61 10 92 -3 161 9 163 28 1 9 -1 10 -3 3 -3
-7 -19 -13 -36 -14 -18 0 -45 -2 -60 -4 -18 -2 -30 1 -34 11 -3 8 -16 14 -30
14 -13 0 -22 -4 -18 -10 3 -5 12 -7 20 -3 8 3 15 1 15 -5 0 -5 -15 -8 -32 -7
-18 2 -50 3 -70 4 -26 1 -38 6 -41 19 -4 16 -5 16 -6 -1z"/>
<path d="M5210 2886 c0 -2 7 -6 15 -10 8 -3 15 -1 15 4 0 6 -7 10 -15 10 -8 0
-15 -2 -15 -4z"/>
<path d="M5316 2878 c3 -4 11 -5 19 -1 21 7 19 12 -4 10 -11 0 -18 -5 -15 -9z"/>
<path d="M5370 2825 c0 -17 -30 -17 -42 0 -5 6 -8 5 -8 -4 0 -11 -3 -11 -17 0
-11 10 -14 10 -9 2 9 -16 -6 -17 -20 -3 -7 7 -11 6 -11 -3 0 -10 17 -14 59
-16 53 -2 58 0 58 18 0 12 -2 21 -5 21 -3 0 -5 -7 -5 -15z"/>
<path d="M5160 2795 c-6 -8 -10 -19 -8 -26 2 -6 9 0 16 15 13 29 10 33 -8 11z"/>
<path d="M5230 2791 c18 -34 12 -51 -20 -57 -16 -4 -27 -10 -25 -15 12 -18 75
22 71 44 -6 25 -18 47 -27 47 -6 0 -5 -8 1 -19z"/>
<path d="M4800 2770 c0 -30 34 -42 96 -34 69 8 77 19 14 19 -26 0 -46 -4 -43
-9 6 -10 -38 3 -51 15 -10 9 18 17 79 22 25 2 14 4 -27 5 -62 2 -68 0 -68 -18z"/>
<path d="M5020 2770 l55 -6 -45 -5 c-40 -5 -37 -6 20 -7 42 0 58 2 45 8 -18 7
-16 8 10 12 17 3 -8 5 -55 5 -76 0 -79 -1 -30 -7z"/>
<path d="M5205 2770 c-4 -6 -11 -8 -16 -5 -5 4 -9 1 -9 -4 0 -6 9 -11 20 -11
11 0 20 7 20 15 0 17 -6 19 -15 5z"/>
<path d="M5350 2752 c0 -4 -16 -7 -35 -7 -20 1 -38 -1 -40 -5 -2 -3 16 -7 40
-7 29 -1 45 3 49 13 3 8 1 14 -4 14 -6 0 -10 -4 -10 -8z"/>
<path d="M5208 2641 c-20 -25 -55 -70 -78 -99 -22 -29 -45 -50 -50 -47 -5 3
-14 -3 -19 -14 -14 -26 -14 -31 3 -31 7 0 33 26 57 58 23 31 62 83 86 115 53
70 54 85 1 18z"/>
<path d="M5330 2683 c1 -16 137 -188 148 -186 6 2 9 -4 6 -12 -6 -15 22 -33
33 -21 5 5 -115 196 -124 196 -5 0 32 -67 62 -112 44 -67 18 -41 -55 53 -38
50 -70 87 -70 82z"/>
<path d="M5171 2647 c-13 -21 -12 -21 5 -5 10 10 16 20 13 22 -3 3 -11 -5 -18
-17z"/>
<path d="M5138 2602 c3 -9 1 -13 -5 -9 -12 7 -36 -16 -27 -26 3 -3 -2 -17 -12
-31 -9 -15 -15 -29 -12 -31 4 -5 78 98 78 108 0 2 -6 4 -14 4 -8 0 -12 -6 -8
-15z"/>
</g>
</svg>
